<svg id="visual" viewBox="0 0 900 600" width="900" height="600" xmlns="http://www.w3.org/2000/svg" xmlns:xlink="http://www.w3.org/1999/xlink" version="1.1"><rect x="0" y="0" width="900" height="600" fill="#0f0f0f"></rect><path d="M0 385L13.7 386.2C27.3 387.3 54.7 389.7 82 389.7C109.3 389.7 136.7 387.3 163.8 396.7C191 406 218 427 245.2 424.5C272.3 422 299.7 396 327 393.3C354.3 390.7 381.7 411.3 409 415.7C436.3 420 463.7 408 491 402.5C518.3 397 545.7 398 573 395.2C600.3 392.3 627.7 385.7 654.8 392.5C682 399.3 709 419.7 736.2 418.8C763.3 418 790.7 396 818 394.7C845.3 393.3 872.7 412.7 886.3 422.3L900 432L900 601L886.3 601C872.7 601 845.3 601 818 601C790.7 601 763.3 601 736.2 601C709 601 682 601 654.8 601C627.7 601 600.3 601 573 601C545.7 601 518.3 601 491 601C463.7 601 436.3 601 409 601C381.7 601 354.3 601 327 601C299.7 601 272.3 601 245.2 601C218 601 191 601 163.8 601C136.7 601 109.3 601 82 601C54.7 601 27.3 601 13.7 601L0 601Z" fill="#afbb02"></path><path d="M0 463L13.7 461.3C27.3 459.7 54.7 456.3 82 457.3C109.3 458.3 136.7 463.7 163.8 467.8C191 472 218 475 245.2 468.2C272.3 461.3 299.7 444.7 327 437C354.3 429.3 381.7 430.7 409 440.3C436.3 450 463.7 468 491 470C518.3 472 545.7 458 573 450.7C600.3 443.3 627.7 442.7 654.8 445.7C682 448.7 709 455.3 736.2 459.3C763.3 463.3 790.7 464.7 818 460.2C845.3 455.7 872.7 445.3 886.3 440.2L900 435L900 601L886.3 601C872.7 601 845.3 601 818 601C790.7 601 763.3 601 736.2 601C709 601 682 601 654.8 601C627.7 601 600.3 601 573 601C545.7 601 518.3 601 491 601C463.7 601 436.3 601 409 601C381.7 601 354.3 601 327 601C299.7 601 272.3 601 245.2 601C218 601 191 601 163.8 601C136.7 601 109.3 601 82 601C54.7 601 27.3 601 13.7 601L0 601Z" fill="#d9e803"></path><path d="M0 471L13.7 470.5C27.3 470 54.7 469 82 470.5C109.3 472 136.7 476 163.8 483.7C191 491.3 218 502.7 245.2 506.2C272.3 509.7 299.7 505.3 327 499.2C354.3 493 381.7 485 409 487.5C436.3 490 463.7 503 491 507.8C518.3 512.7 545.7 509.3 573 506.7C600.3 504 627.7 502 654.8 498C682 494 709 488 736.2 485.7C763.3 483.3 790.7 484.7 818 483.8C845.3 483 872.7 480 886.3 478.5L900 477L900 601L886.3 601C872.7 601 845.3 601 818 601C790.7 601 763.3 601 736.2 601C709 601 682 601 654.8 601C627.7 601 600.3 601 573 601C545.7 601 518.3 601 491 601C463.7 601 436.3 601 409 601C381.7 601 354.3 601 327 601C299.7 601 272.3 601 245.2 601C218 601 191 601 163.8 601C136.7 601 109.3 601 82 601C54.7 601 27.3 601 13.7 601L0 601Z" fill="#f2ff3f"></path><path d="M0 538L13.7 542C27.3 546 54.7 554 82 557.5C109.3 561 136.7 560 163.8 555.7C191 551.3 218 543.7 245.2 538.3C272.3 533 299.7 530 327 531.8C354.3 533.7 381.7 540.3 409 543.8C436.3 547.3 463.7 547.7 491 549.2C518.3 550.7 545.7 553.3 573 549.3C600.3 545.3 627.7 534.7 654.8 529.2C682 523.7 709 523.3 736.2 528C763.3 532.7 790.7 542.3 818 545.3C845.3 548.3 872.7 544.7 886.3 542.8L900 541L900 601L886.3 601C872.7 601 845.3 601 818 601C790.7 601 763.3 601 736.2 601C709 601 682 601 654.8 601C627.7 601 600.3 601 573 601C545.7 601 518.3 601 491 601C463.7 601 436.3 601 409 601C381.7 601 354.3 601 327 601C299.7 601 272.3 601 245.2 601C218 601 191 601 163.8 601C136.7 601 109.3 601 82 601C54.7 601 27.3 601 13.7 601L0 601Z" fill="#f6ff74"></path></svg>