<svg id="visual" viewBox="0 0 900 600" width="900" height="600" xmlns="http://www.w3.org/2000/svg" xmlns:xlink="http://www.w3.org/1999/xlink" version="1.1"><rect x="0" y="0" width="900" height="600" fill="#0f0f0f"></rect><path d="M0 383L90 339L180 379L270 371L360 417L450 370L540 340L630 372L720 416L810 380L900 344L900 601L810 601L720 601L630 601L540 601L450 601L360 601L270 601L180 601L90 601L0 601Z" fill="#85dafa"></path><path d="M0 426L90 412L180 408L270 411L360 468L450 448L540 445L630 394L720 464L810 429L900 396L900 601L810 601L720 601L630 601L540 601L450 601L360 601L270 601L180 601L90 601L0 601Z" fill="#62d2f9"></path><path d="M0 474L90 431L180 453L270 436L360 451L450 425L540 496L630 495L720 459L810 467L900 433L900 601L810 601L720 601L630 601L540 601L450 601L360 601L270 601L180 601L90 601L0 601Z" fill="#29c9f9"></path><path d="M0 481L90 472L180 480L270 495L360 530L450 505L540 483L630 509L720 486L810 499L900 522L900 601L810 601L720 601L630 601L540 601L450 601L360 601L270 601L180 601L90 601L0 601Z" fill="#21afd9"></path><path d="M0 525L90 556L180 533L270 527L360 543L450 538L540 540L630 522L720 539L810 519L900 557L900 601L810 601L720 601L630 601L540 601L450 601L360 601L270 601L180 601L90 601L0 601Z" fill="#1a95ba"></path></svg>